<mxfile host="65bd71144e">
    <diagram id="7DqtxOf4fQ7l3X7-gScf" name="Page-1">
        <mxGraphModel dx="604" dy="403" grid="1" gridSize="10" guides="1" tooltips="1" connect="1" arrows="1" fold="1" page="1" pageScale="1" pageWidth="850" pageHeight="1100" math="0" shadow="0">
            <root>
                <mxCell id="0"/>
                <mxCell id="1" parent="0"/>
                <mxCell id="2" value="PC" style="whiteSpace=wrap;html=1;aspect=fixed;spacing=2;fontSize=20;" vertex="1" parent="1">
                    <mxGeometry x="80" y="590" width="70" height="70" as="geometry"/>
                </mxCell>
                <mxCell id="3" value="pre_if" style="rounded=0;whiteSpace=wrap;html=1;fontSize=20;" vertex="1" parent="1">
                    <mxGeometry x="220" y="590" width="120" height="70" as="geometry"/>
                </mxCell>
                <mxCell id="5" value="" style="rounded=1;whiteSpace=wrap;html=1;fontSize=20;" vertex="1" parent="1">
                    <mxGeometry x="425" y="505" width="30" height="240" as="geometry"/>
                </mxCell>
                <mxCell id="6" value="" style="rounded=1;whiteSpace=wrap;html=1;fontSize=20;" vertex="1" parent="1">
                    <mxGeometry x="660" y="505" width="30" height="240" as="geometry"/>
                </mxCell>
                <mxCell id="7" value="" style="rounded=1;whiteSpace=wrap;html=1;fontSize=20;" vertex="1" parent="1">
                    <mxGeometry x="950" y="505" width="30" height="240" as="geometry"/>
                </mxCell>
                <mxCell id="8" value="" style="rounded=1;whiteSpace=wrap;html=1;fontSize=20;" vertex="1" parent="1">
                    <mxGeometry x="1210" y="505" width="30" height="240" as="geometry"/>
                </mxCell>
                <mxCell id="9" value="System Bus" style="rounded=0;whiteSpace=wrap;html=1;fontSize=20;" vertex="1" parent="1">
                    <mxGeometry x="70" y="860" width="1300" height="60" as="geometry"/>
                </mxCell>
                <mxCell id="10" value="decode" style="rounded=0;whiteSpace=wrap;html=1;fontSize=20;" vertex="1" parent="1">
                    <mxGeometry x="490" y="540" width="80" height="50" as="geometry"/>
                </mxCell>
                <mxCell id="11" value="Registers" style="rounded=0;whiteSpace=wrap;html=1;fontSize=20;" vertex="1" parent="1">
                    <mxGeometry x="520" y="650" width="100" height="50" as="geometry"/>
                </mxCell>
                <mxCell id="12" value="forwarding" style="shape=dataStorage;whiteSpace=wrap;html=1;fixedSize=1;fontSize=20;" vertex="1" parent="1">
                    <mxGeometry x="740" y="525" width="140" height="50" as="geometry"/>
                </mxCell>
                <mxCell id="15" value="hazard" style="rounded=0;whiteSpace=wrap;html=1;fontSize=20;" vertex="1" parent="1">
                    <mxGeometry x="1030" y="565" width="80" height="50" as="geometry"/>
                </mxCell>
                <mxCell id="17" value="MUX" style="shape=trapezoid;perimeter=trapezoidPerimeter;whiteSpace=wrap;html=1;fixedSize=1;fontSize=20;rotation=-90;" vertex="1" parent="1">
                    <mxGeometry x="140" y="460" width="80" height="45" as="geometry"/>
                </mxCell>
                <mxCell id="18" value="MUX" style="shape=trapezoid;perimeter=trapezoidPerimeter;whiteSpace=wrap;html=1;fixedSize=1;fontSize=20;rotation=90;" vertex="1" parent="1">
                    <mxGeometry x="720" y="615" width="80" height="45" as="geometry"/>
                </mxCell>
                <mxCell id="61" value="" style="endArrow=none;html=1;fontSize=20;" edge="1" parent="1">
                    <mxGeometry width="50" height="50" relative="1" as="geometry">
                        <mxPoint x="840" y="680" as="sourcePoint"/>
                        <mxPoint x="840" y="640" as="targetPoint"/>
                    </mxGeometry>
                </mxCell>
                <mxCell id="62" value="" style="endArrow=none;html=1;fontSize=20;" edge="1" parent="1">
                    <mxGeometry width="50" height="50" relative="1" as="geometry">
                        <mxPoint x="880" y="720" as="sourcePoint"/>
                        <mxPoint x="840" y="680" as="targetPoint"/>
                    </mxGeometry>
                </mxCell>
                <mxCell id="63" value="" style="endArrow=none;html=1;fontSize=20;" edge="1" parent="1">
                    <mxGeometry width="50" height="50" relative="1" as="geometry">
                        <mxPoint x="840" y="640" as="sourcePoint"/>
                        <mxPoint x="920" y="700" as="targetPoint"/>
                    </mxGeometry>
                </mxCell>
                <mxCell id="64" value="" style="endArrow=none;html=1;fontSize=20;" edge="1" parent="1">
                    <mxGeometry width="50" height="50" relative="1" as="geometry">
                        <mxPoint x="840" y="800" as="sourcePoint"/>
                        <mxPoint x="840" y="760" as="targetPoint"/>
                    </mxGeometry>
                </mxCell>
                <mxCell id="65" value="" style="endArrow=none;html=1;fontSize=20;" edge="1" parent="1">
                    <mxGeometry width="50" height="50" relative="1" as="geometry">
                        <mxPoint x="840" y="760" as="sourcePoint"/>
                        <mxPoint x="880" y="720" as="targetPoint"/>
                    </mxGeometry>
                </mxCell>
                <mxCell id="66" value="" style="endArrow=none;html=1;fontSize=20;" edge="1" parent="1">
                    <mxGeometry width="50" height="50" relative="1" as="geometry">
                        <mxPoint x="840" y="800" as="sourcePoint"/>
                        <mxPoint x="920" y="740" as="targetPoint"/>
                    </mxGeometry>
                </mxCell>
                <mxCell id="67" value="" style="endArrow=none;html=1;fontSize=20;" edge="1" parent="1">
                    <mxGeometry width="50" height="50" relative="1" as="geometry">
                        <mxPoint x="920" y="740" as="sourcePoint"/>
                        <mxPoint x="920" y="700" as="targetPoint"/>
                    </mxGeometry>
                </mxCell>
                <mxCell id="68" value="MUX" style="shape=trapezoid;perimeter=trapezoidPerimeter;whiteSpace=wrap;html=1;fixedSize=1;fontSize=20;rotation=90;" vertex="1" parent="1">
                    <mxGeometry x="1290" y="602.5" width="80" height="45" as="geometry"/>
                </mxCell>
                <mxCell id="69" value="ROM" style="rounded=0;whiteSpace=wrap;html=1;fontSize=20;" vertex="1" parent="1">
                    <mxGeometry x="220" y="980" width="120" height="70" as="geometry"/>
                </mxCell>
                <mxCell id="70" value="RAM" style="rounded=0;whiteSpace=wrap;html=1;fontSize=20;" vertex="1" parent="1">
                    <mxGeometry x="480" y="980" width="120" height="70" as="geometry"/>
                </mxCell>
                <mxCell id="71" value="GPIO" style="rounded=0;whiteSpace=wrap;html=1;fontSize=20;" vertex="1" parent="1">
                    <mxGeometry x="730" y="980" width="120" height="70" as="geometry"/>
                </mxCell>
                <mxCell id="72" value="UART" style="rounded=0;whiteSpace=wrap;html=1;fontSize=20;" vertex="1" parent="1">
                    <mxGeometry x="1080" y="980" width="120" height="70" as="geometry"/>
                </mxCell>
                <mxCell id="73" value="ALU" style="text;html=1;align=center;verticalAlign=middle;resizable=0;points=[];autosize=1;strokeColor=none;fillColor=none;fontSize=20;" vertex="1" parent="1">
                    <mxGeometry x="870" y="700" width="60" height="40" as="geometry"/>
                </mxCell>
                <mxCell id="74" value="mem_wb" style="text;html=1;align=center;verticalAlign=middle;resizable=0;points=[];autosize=1;strokeColor=none;fillColor=none;fontSize=20;" vertex="1" parent="1">
                    <mxGeometry x="1190" y="450" width="100" height="40" as="geometry"/>
                </mxCell>
                <mxCell id="75" value="ex_mem" style="text;html=1;align=center;verticalAlign=middle;resizable=0;points=[];autosize=1;strokeColor=none;fillColor=none;fontSize=20;" vertex="1" parent="1">
                    <mxGeometry x="920" y="450" width="100" height="40" as="geometry"/>
                </mxCell>
                <mxCell id="76" value="id_ex" style="text;html=1;align=center;verticalAlign=middle;resizable=0;points=[];autosize=1;strokeColor=none;fillColor=none;fontSize=20;" vertex="1" parent="1">
                    <mxGeometry x="645" y="450" width="70" height="40" as="geometry"/>
                </mxCell>
                <mxCell id="77" value="if_id" style="text;html=1;align=center;verticalAlign=middle;resizable=0;points=[];autosize=1;strokeColor=none;fillColor=none;fontSize=20;" vertex="1" parent="1">
                    <mxGeometry x="415" y="450" width="60" height="40" as="geometry"/>
                </mxCell>
                <mxCell id="78" value="" style="endArrow=classic;html=1;fontSize=20;exitX=0.5;exitY=1;exitDx=0;exitDy=0;entryX=0.161;entryY=0.012;entryDx=0;entryDy=0;entryPerimeter=0;" edge="1" parent="1" source="3" target="9">
                    <mxGeometry width="50" height="50" relative="1" as="geometry">
                        <mxPoint x="100" y="800" as="sourcePoint"/>
                        <mxPoint x="150" y="750" as="targetPoint"/>
                    </mxGeometry>
                </mxCell>
                <mxCell id="79" value="" style="edgeStyle=segmentEdgeStyle;endArrow=classic;html=1;curved=0;rounded=0;endSize=8;startSize=8;fontSize=20;exitX=0.237;exitY=0.012;exitDx=0;exitDy=0;exitPerimeter=0;entryX=0.443;entryY=1.002;entryDx=0;entryDy=0;entryPerimeter=0;" edge="1" parent="1" source="9" target="5">
                    <mxGeometry width="50" height="50" relative="1" as="geometry">
                        <mxPoint x="420" y="370" as="sourcePoint"/>
                        <mxPoint x="450" y="790" as="targetPoint"/>
                        <Array as="points">
                            <mxPoint x="380" y="861"/>
                            <mxPoint x="380" y="790"/>
                            <mxPoint x="438" y="790"/>
                        </Array>
                    </mxGeometry>
                </mxCell>
                <mxCell id="80" value="" style="edgeStyle=segmentEdgeStyle;endArrow=classic;html=1;curved=0;rounded=0;endSize=8;startSize=8;fontSize=20;entryX=0.75;entryY=1;entryDx=0;entryDy=0;" edge="1" parent="1" source="9" target="68">
                    <mxGeometry width="50" height="50" relative="1" as="geometry">
                        <mxPoint x="1140" y="840" as="sourcePoint"/>
                        <mxPoint x="1280" y="640" as="targetPoint"/>
                        <Array as="points">
                            <mxPoint x="1280" y="645"/>
                        </Array>
                    </mxGeometry>
                </mxCell>
                <mxCell id="82" value="" style="edgeStyle=elbowEdgeStyle;elbow=vertical;endArrow=classic;html=1;curved=0;rounded=0;endSize=8;startSize=8;fontSize=20;entryX=0.5;entryY=1;entryDx=0;entryDy=0;" edge="1" parent="1" target="11">
                    <mxGeometry width="50" height="50" relative="1" as="geometry">
                        <mxPoint x="1400" y="630" as="sourcePoint"/>
                        <mxPoint x="670" y="750" as="targetPoint"/>
                        <Array as="points">
                            <mxPoint x="540" y="810"/>
                            <mxPoint x="520" y="830"/>
                            <mxPoint x="1410" y="800"/>
                            <mxPoint x="1410" y="810"/>
                            <mxPoint x="1440" y="810"/>
                            <mxPoint x="1450" y="800"/>
                            <mxPoint x="1390" y="780"/>
                        </Array>
                    </mxGeometry>
                </mxCell>
                <mxCell id="84" value="" style="endArrow=none;html=1;fontSize=20;exitX=0.576;exitY=-0.033;exitDx=0;exitDy=0;exitPerimeter=0;" edge="1" parent="1" source="68">
                    <mxGeometry width="50" height="50" relative="1" as="geometry">
                        <mxPoint x="1350" y="640" as="sourcePoint"/>
                        <mxPoint x="1400" y="631" as="targetPoint"/>
                    </mxGeometry>
                </mxCell>
                <mxCell id="85" value="" style="endArrow=classic;html=1;fontSize=20;" edge="1" parent="1" source="73">
                    <mxGeometry width="50" height="50" relative="1" as="geometry">
                        <mxPoint x="950" y="780" as="sourcePoint"/>
                        <mxPoint x="950" y="720" as="targetPoint"/>
                    </mxGeometry>
                </mxCell>
                <mxCell id="86" value="" style="endArrow=none;html=1;fontSize=20;entryX=0.011;entryY=0.171;entryDx=0;entryDy=0;entryPerimeter=0;exitX=0.871;exitY=0.422;exitDx=0;exitDy=0;exitPerimeter=0;" edge="1" parent="1" source="12" target="8">
                    <mxGeometry width="50" height="50" relative="1" as="geometry">
                        <mxPoint x="860" y="550" as="sourcePoint"/>
                        <mxPoint x="910" y="500" as="targetPoint"/>
                    </mxGeometry>
                </mxCell>
                <mxCell id="87" value="" style="endArrow=none;html=1;fontSize=20;entryX=0.008;entryY=0.23;entryDx=0;entryDy=0;exitX=0.882;exitY=0.702;exitDx=0;exitDy=0;exitPerimeter=0;entryPerimeter=0;" edge="1" parent="1" source="12" target="7">
                    <mxGeometry width="50" height="50" relative="1" as="geometry">
                        <mxPoint x="880" y="570" as="sourcePoint"/>
                        <mxPoint x="930" y="520" as="targetPoint"/>
                    </mxGeometry>
                </mxCell>
                <mxCell id="88" value="" style="edgeStyle=elbowEdgeStyle;elbow=horizontal;endArrow=classic;html=1;curved=0;rounded=0;endSize=8;startSize=8;fontSize=20;exitX=0.385;exitY=0.018;exitDx=0;exitDy=0;exitPerimeter=0;" edge="1" parent="1" source="17">
                    <mxGeometry width="50" height="50" relative="1" as="geometry">
                        <mxPoint x="150" y="490" as="sourcePoint"/>
                        <mxPoint x="100" y="590" as="targetPoint"/>
                        <Array as="points">
                            <mxPoint x="100" y="570"/>
                            <mxPoint x="100" y="470"/>
                        </Array>
                    </mxGeometry>
                </mxCell>
                <mxCell id="90" value="" style="endArrow=classic;html=1;fontSize=20;exitX=1;exitY=0.5;exitDx=0;exitDy=0;entryX=0;entryY=0.5;entryDx=0;entryDy=0;" edge="1" parent="1" source="2" target="3">
                    <mxGeometry width="50" height="50" relative="1" as="geometry">
                        <mxPoint x="190" y="640" as="sourcePoint"/>
                        <mxPoint x="240" y="590" as="targetPoint"/>
                    </mxGeometry>
                </mxCell>
                <mxCell id="91" value="" style="edgeStyle=segmentEdgeStyle;endArrow=classic;html=1;curved=0;rounded=0;endSize=8;startSize=8;fontSize=20;exitX=0.5;exitY=0;exitDx=0;exitDy=0;entryX=0.34;entryY=1;entryDx=0;entryDy=0;entryPerimeter=0;" edge="1" parent="1" source="3" target="17">
                    <mxGeometry width="50" height="50" relative="1" as="geometry">
                        <mxPoint x="120" y="620" as="sourcePoint"/>
                        <mxPoint x="170" y="570" as="targetPoint"/>
                        <Array as="points">
                            <mxPoint x="270" y="590"/>
                            <mxPoint x="270" y="495"/>
                        </Array>
                    </mxGeometry>
                </mxCell>
            </root>
        </mxGraphModel>
    </diagram>
</mxfile>